{"title":"Sherlock Holmes 2 A Game Of Shadows 2011 READNFO R6 XViD DTR","uid":7175389,"size":1738099892,"categoryP":"video","categoryS":"movies","magnet":"?xt=urn:btih:64469c16b4abd42b057aa2ff36af1f4f48e8ac09&amp;dn=Sherlock+Holmes+2+A+Game+Of+Shadows+2011+READNFO+R6+XViD+DTR&amp;tr=udp%3A%2F%2Ftracker.openbittorrent.com%3A80&amp;tr=udp%3A%2F%2Fopen.demonii.com%3A1337&amp;tr=udp%3A%2F%2Ftracker.coppersurfer.tk%3A6969&amp;tr=udp%3A%2F%2Fexodus.desync.com%3A6969","seeders":0,"leechers":1,"uploader":"BLOVES","files":3,"time":1334093729,"description":" &lt;a href=&quot;http://www.covershut.com/covers/Sherlock-Holmes-A-Game-Of-Shadows-2011-DU-Front-Cover-59452.jpg&quot; rel=&quot;nofollow&quot; target=&quot;_NEW&quot;&gt;http://www.covershut.com/covers/Sherlock-Holmes-A-Game-Of-Shadows-2011-DU-Front-Cover-59452.jpg&lt;/a&gt;\n\nFormat : AVI\nFormat/Info : Audio Video Interleave\nFile size : 1.60 GiB\nDuration : 2h 6mn\nOverall bit rate : 1 820 Kbps\nWriting library : VirtualDub build 32842/release\n\nVideo\nID : 0\nFormat : MPEG-4 Visual\nFormat profile : Advanced Simple@L5\nFormat settings, BVOP : 2\nFormat settings, QPel : No\nFormat settings, GMC : No warppoints\nFormat settings, Matrix : Default (H.263)\nMuxing mode : Packed bitstream\nCodec ID : XVID\nCodec ID/Hint : XviD\nDuration : 2h 6mn\nBit rate : 1 584 Kbps\nWidth : 720 pixels\nHeight : 304 pixels\nDisplay aspect ratio : 2.35:1\nFrame rate : 29.970 fps\nColor space : YUV\nChroma subsampling : 4:2:0\nBit depth : 8 bits\nScan type : Progressive\nCompression mode : Lossy\nBits/(Pixel*Frame) : 0.241\nStream size : 1.40 GiB (87%)\nWriting library : XviD 64\n\nAudio\nID : 1\nFormat : AC-3\nFormat/Info : Audio Coding 3\nMode extension : CM (complete main)\nCodec ID : 2000\nDuration : 2h 6mn\nBit rate mode : Constant\nBit rate : 224 Kbps\nChannel(s) : 2 channels\nChannel positions : Front: L R\nSampling rate : 48.0 KHz\nBit depth : 16 bits\nCompression mode : Lossy\nStream size : 202 MiB (12%)\nAlignment : Aligned on interleaves\nInterleave, duration : 33 ms (1.00 video frame)\nInterleave, preload duration : 512 ms\n\n\n\n\n\n\n\n\n &lt;a href=&quot;\nhttp://www.imdb.com/title/tt1515091/&quot; rel=&quot;nofollow&quot; target=&quot;_NEW&quot;&gt;\nhttp://www.imdb.com/title/tt1515091/&lt;/a&gt;\n\n\n\n\n\n\nRatings: 7.7/10 from 78,803 users Metascore: 48/100\nReviews: 282 user | 294 critic | 38 from Metacritic.com\n\nSherlock Holmes and his sidekick Dr. Watson join forces to outwit and bring down their fiercest adversary, Professor Moriarty.\n\nDirector:\nGuy Ritchie\nWriters:\nMichele Mulroney, Kieran Mulroney, and 1 more credit Â»\nStars:\nRobert Downey Jr., Jude Law and Jared Harris\n\n\n\n\n\n\n\nSource Used\n\n\n\nVobs..............Thanks matey\n\n\n\n\nReason for the READNFO is basically to say im not 100% on what the source really is.Video wise it has the feel of a real good cam so check out that sample provided and dont be fooled by all the tags around\n\n\n\nDenoised it then sharpened back,deinterlaced,cropped,resized added saturation and blah blah blah\n\n\n\n\nCHECK OUT SAMPLE !\n\n\n\n\n\n\nEnjoy\n\n\n","torrent":{"xt":"urn:btih:64469c16b4abd42b057aa2ff36af1f4f48e8ac09","amp;dn":"Sherlock+Holmes+2+A+Game+Of+Shadows+2011+READNFO+R6+XViD+DTR","amp;tr":["udp%3A%2F%2Ftracker.openbittorrent.com%3A80","udp%3A%2F%2Fopen.demonii.com%3A1337","udp%3A%2F%2Ftracker.coppersurfer.tk%3A6969","udp%3A%2F%2Fexodus.desync.com%3A6969"],"infoHash":"64469c16b4abd42b057aa2ff36af1f4f48e8ac09","infoHashBuffer":{"type":"Buffer","data":[100,70,156,22,180,171,212,43,5,122,162,255,54,175,31,79,72,232,172,9]},"announce":[],"urlList":[]}}